<?xml version="1.0" standalone="no"?>
<svg xmlns:xlink="http://www.w3.org/1999/xlink" id="wave" style="transform:rotate(0deg); transition: 0.3s" viewBox="0 0 1440 380" version="1.1" xmlns="http://www.w3.org/2000/svg"><defs><linearGradient id="sw-gradient-0" x1="0" x2="0" y1="1" y2="0"><stop stop-color="rgba(255, 255, 255, 1)" offset="0%"/><stop stop-color="rgba(89.959, 239.383, 163.458, 1)" offset="100%"/></linearGradient></defs><path style="transform:translate(0, 0px); opacity:1" fill="url(#sw-gradient-0)" d="M0,342L40,316.7C80,291,160,241,240,215.3C320,190,400,190,480,202.7C560,215,640,241,720,247C800,253,880,241,960,228C1040,215,1120,203,1200,171C1280,139,1360,89,1440,76C1520,63,1600,89,1680,88.7C1760,89,1840,63,1920,88.7C2000,114,2080,190,2160,234.3C2240,279,2320,291,2400,297.7C2480,304,2560,304,2640,310.3C2720,317,2800,329,2880,278.7C2960,228,3040,114,3120,82.3C3200,51,3280,101,3360,158.3C3440,215,3520,279,3600,278.7C3680,279,3760,215,3840,177.3C3920,139,4000,127,4080,158.3C4160,190,4240,266,4320,291.3C4400,317,4480,291,4560,272.3C4640,253,4720,241,4800,253.3C4880,266,4960,304,5040,323C5120,342,5200,342,5280,335.7C5360,329,5440,317,5520,272.3C5600,228,5680,152,5720,114L5760,76L5760,380L5720,380C5680,380,5600,380,5520,380C5440,380,5360,380,5280,380C5200,380,5120,380,5040,380C4960,380,4880,380,4800,380C4720,380,4640,380,4560,380C4480,380,4400,380,4320,380C4240,380,4160,380,4080,380C4000,380,3920,380,3840,380C3760,380,3680,380,3600,380C3520,380,3440,380,3360,380C3280,380,3200,380,3120,380C3040,380,2960,380,2880,380C2800,380,2720,380,2640,380C2560,380,2480,380,2400,380C2320,380,2240,380,2160,380C2080,380,2000,380,1920,380C1840,380,1760,380,1680,380C1600,380,1520,380,1440,380C1360,380,1280,380,1200,380C1120,380,1040,380,960,380C880,380,800,380,720,380C640,380,560,380,480,380C400,380,320,380,240,380C160,380,80,380,40,380L0,380Z"/></svg>